<?xml version="1.0" encoding="UTF-8" standalone="no"?>
<svg
   xmlns:dc="http://purl.org/dc/elements/1.1/"
   xmlns:cc="http://creativecommons.org/ns#"
   xmlns:rdf="http://www.w3.org/1999/02/22-rdf-syntax-ns#"
   xmlns:svg="http://www.w3.org/2000/svg"
   xmlns="http://www.w3.org/2000/svg"
   xmlns:sodipodi="http://sodipodi.sourceforge.net/DTD/sodipodi-0.dtd"
   xmlns:inkscape="http://www.inkscape.org/namespaces/inkscape"
   viewBox="-6 -6 28 28"
   width="28"
   height="28"
   data-reactid=".0.1.1.$bar=1svg0.0.0"
   id="svg2"
   version="1.1"
   inkscape:version="0.48.4 r9939"
   sodipodi:docname="bar.svg">
  <metadata
     id="metadata14">
    <rdf:RDF>
      <cc:Work
         rdf:about="">
        <dc:format>image/svg+xml</dc:format>
        <dc:type
           rdf:resource="http://purl.org/dc/dcmitype/StillImage" />
      </cc:Work>
    </rdf:RDF>
  </metadata>
  <defs
     id="defs12" />
  <sodipodi:namedview
     pagecolor="#ffffff"
     bordercolor="#666666"
     borderopacity="1"
     objecttolerance="10"
     gridtolerance="10"
     guidetolerance="10"
     inkscape:pageopacity="0"
     inkscape:pageshadow="2"
     inkscape:window-width="640"
     inkscape:window-height="480"
     id="namedview10"
     showgrid="false"
     inkscape:zoom="8.4285714"
     inkscape:cx="14"
     inkscape:cy="14"
     inkscape:window-x="0"
     inkscape:window-y="0"
     inkscape:window-maximized="0"
     inkscape:current-layer="svg2" />
  <rect
     x="-5"
     y="-5"
     rx="13"
     ry="13"
     width="26"
     height="26"
     stroke="#ffffff"
     style="stroke-linejoin:round;stroke-miterlimit:4px;"
     fill="#ffffff"
     stroke-width="2"
     data-reactid=".0.1.1.$bar=1svg0.0.0.0"
     id="rect4" />
  <rect
     x="-5"
     y="-5"
     width="26"
     height="26"
     rx="13"
     ry="13"
     fill="#2d97a1"
     data-reactid=".0.1.1.$bar=1svg0.0.0.1"
     id="rect6" />
  <path
     d="m 7.8559322,1.4745763 c -2,0 -7,0.25 -6.5,0.75 l 6,6.25 0,3.9999997 c 0,1 -3,0.5 -3,2 l 6.9999998,0 c 0,-1.5 -2.9999998,-1 -2.9999998,-2 l 0,-3.9999997 5.9999998,-6.25 c 0.5,-0.5 -4.4999998,-0.75 -6.4999998,-0.75 z m 0,1 c 2.4999998,0 4.7499998,0.25 4.7499998,0.25 l -0.75,0.75 -7.9999998,0 -0.75,-0.75 c 0,0 2.25,-0.25 4.75,-0.25 z"
     data-reactid=".0.1.1.$bar=1svg0.0.0.3:$bar=1svg-0-fill"
     id="path8"
     inkscape:connector-curvature="0"
     style="fill:#ffffff" />
</svg>
